<svg width="520" height="320" viewBox="0 0 520 320" fill="none" xmlns="http://www.w3.org/2000/svg">
  <rect width="520" height="320" rx="28" fill="#0b101a" />
  <rect x="32" y="28" width="456" height="264" rx="24" fill="#0f172a" stroke="#1f2937" stroke-width="2" />
  <rect x="64" y="64" width="392" height="192" rx="18" fill="#0b1324" stroke="#2b3648" stroke-width="2" />
  <rect x="88" y="86" width="344" height="34" rx="10" fill="#111827" />
  <rect x="88" y="132" width="344" height="34" rx="10" fill="#111827" />
  <rect x="88" y="178" width="344" height="34" rx="10" fill="#111827" />
  <circle cx="110" cy="103" r="10" fill="#64f4ac" />
  <circle cx="110" cy="149" r="10" fill="#ffd166" />
  <circle cx="110" cy="195" r="10" fill="#ff6b6b" />
  <rect x="132" y="96" width="140" height="12" rx="6" fill="#94a3b8" />
  <rect x="132" y="142" width="160" height="12" rx="6" fill="#94a3b8" />
  <rect x="132" y="188" width="120" height="12" rx="6" fill="#94a3b8" />
  <rect x="312" y="96" width="84" height="12" rx="6" fill="#1f2937" />
  <rect x="312" y="142" width="84" height="12" rx="6" fill="#1f2937" />
  <rect x="312" y="188" width="84" height="12" rx="6" fill="#1f2937" />
  <path d="M356 180l34 34" stroke="#ff6b6b" stroke-width="8" stroke-linecap="round" />
  <path d="M390 180l-34 34" stroke="#ff6b6b" stroke-width="8" stroke-linecap="round" />
  <text x="74" y="244" fill="#94a3b8" font-size="12" font-family="Space Grotesk, sans-serif">calibration grid</text>
</svg>
