<svg width="520" height="320" viewBox="0 0 520 320" fill="none" xmlns="http://www.w3.org/2000/svg">
  <rect width="520" height="320" rx="28" fill="#0b101a" />
  <rect x="32" y="28" width="456" height="264" rx="24" fill="#0f172a" stroke="#1f2937" stroke-width="2" />
  <rect x="60" y="60" width="240" height="140" rx="16" fill="#0b1324" stroke="#2b3648" stroke-width="2" />
  <rect x="76" y="150" width="24" height="36" rx="6" fill="#64f4ac" />
  <rect x="108" y="130" width="24" height="56" rx="6" fill="#ffd166" />
  <rect x="140" y="108" width="24" height="78" rx="6" fill="#ff6b6b" />
  <rect x="172" y="120" width="24" height="66" rx="6" fill="#ffd166" />
  <rect x="204" y="92" width="24" height="94" rx="6" fill="#64f4ac" />
  <rect x="236" y="136" width="24" height="50" rx="6" fill="#7dd3fc" />
  <rect x="328" y="72" width="132" height="116" rx="16" fill="#111827" stroke="#2b3648" stroke-width="2" />
  <path d="M354 158c18 18 46 18 64 0" stroke="#ffd166" stroke-width="6" stroke-linecap="round" />
  <circle cx="364" cy="120" r="10" fill="#ff6b6b" />
  <circle cx="418" cy="120" r="10" fill="#64f4ac" />
  <rect x="320" y="210" width="156" height="52" rx="12" fill="#0b1324" stroke="#2b3648" stroke-width="2" />
  <rect x="336" y="224" width="60" height="10" rx="5" fill="#94a3b8" />
  <rect x="336" y="240" width="96" height="10" rx="5" fill="#475569" />
  <rect x="60" y="220" width="220" height="20" rx="10" fill="#101b2f" />
  <rect x="60" y="220" width="128" height="20" rx="10" fill="#ffd166" />
  <text x="66" y="214" fill="#94a3b8" font-size="12" font-family="Space Grotesk, sans-serif">Q2 mood</text>
</svg>
