<svg width="120" height="120" viewBox="0 0 120 120" fill="none" xmlns="http://www.w3.org/2000/svg">
  <defs>
    <linearGradient id="body" x1="20" y1="12" x2="96" y2="110" gradientUnits="userSpaceOnUse">
      <stop stop-color="#1A0B1F"/>
      <stop offset="0.5" stop-color="#2B0F23"/>
      <stop offset="1" stop-color="#3E1020"/>
    </linearGradient>
    <linearGradient id="scar" x1="28" y1="36" x2="76" y2="92" gradientUnits="userSpaceOnUse">
      <stop stop-color="#FF3D6A"/>
      <stop offset="1" stop-color="#FF9B55"/>
    </linearGradient>
    <radialGradient id="eyeGlow" cx="0" cy="0" r="1" gradientUnits="userSpaceOnUse" gradientTransform="matrix(12 0 0 10 60 58)">
      <stop stop-color="#FF7A9E" stop-opacity="0.9"/>
      <stop offset="1" stop-color="#FF3D6A" stop-opacity="0"/>
    </radialGradient>
    <linearGradient id="fang" x1="0" y1="0" x2="0" y2="12" gradientUnits="userSpaceOnUse">
      <stop stop-color="#FFF4CC"/>
      <stop offset="1" stop-color="#FFDAC2"/>
    </linearGradient>
    <filter id="shadow" x="-10%" y="-10%" width="120%" height="130%" color-interpolation-filters="sRGB">
      <feDropShadow dx="0" dy="10" stdDeviation="8" flood-color="#FF3D6A" flood-opacity="0.22"/>
      <feDropShadow dx="0" dy="4" stdDeviation="6" flood-color="#000" flood-opacity="0.45"/>
    </filter>
  </defs>
  <g filter="url(#shadow)">
    <path
      d="M60 8c-11 7-22 8-33 3l-7 20c-5 13-6 28-2 41 5 18 18 32 34 37 3 1 7 1 10 0 16-5 29-19 34-37 4-13 3-28-2-41l-7-20c-11 5-22 4-33-3Z"
      fill="url(#body)" stroke="#FF4D74" stroke-width="3" stroke-linejoin="round"/>
    <path d="M38 16 22 6l6 24" stroke="#FF4D74" stroke-width="4" stroke-linecap="round" stroke-linejoin="round"/>
    <path d="M82 16 98 6l-6 24" stroke="#FF4D74" stroke-width="4" stroke-linecap="round" stroke-linejoin="round"/>
    <path d="M32 96c14 10 42 10 56 0" stroke="#7A1F2D" stroke-width="4" stroke-linecap="round"/>
    <path d="M30 44c8-6 16-8 24-7" stroke="url(#scar)" stroke-width="4" stroke-linecap="round" stroke-linejoin="round"/>
    <path d="M78 36c-4 6-5 12-3 18" stroke="url(#scar)" stroke-width="4" stroke-linecap="round" stroke-linejoin="round"/>
    <ellipse cx="44" cy="58" rx="14" ry="12" fill="#0A0710" stroke="#FF6385" stroke-width="2"/>
    <ellipse cx="76" cy="58" rx="14" ry="12" fill="#0A0710" stroke="#FF6385" stroke-width="2"/>
    <circle cx="44" cy="58" r="9" fill="url(#eyeGlow)"/>
    <circle cx="76" cy="58" r="9" fill="url(#eyeGlow)"/>
    <ellipse cx="44" cy="58" rx="6" ry="7" fill="#FF9B55"/>
    <ellipse cx="76" cy="58" rx="6" ry="7" fill="#FF9B55"/>
    <rect x="42" y="52" width="4" height="12" rx="2" fill="#0A0710"/>
    <rect x="74" y="52" width="4" height="12" rx="2" fill="#0A0710"/>
    <path d="M42 83c5 8 31 8 36 0" stroke="#FFD6B4" stroke-width="3.5" stroke-linecap="round"/>
    <path d="M48 83 44 94 52 83Z" fill="url(#fang)" stroke="#FF3D6A" stroke-width="1"/>
    <path d="M60 84 56 95 64 84Z" fill="url(#fang)" stroke="#FF3D6A" stroke-width="1"/>
    <path d="M72 83 68 94 76 83Z" fill="url(#fang)" stroke="#FF3D6A" stroke-width="1"/>
    <path d="M54 70c4 2 8 2 12 0" stroke="#2E2E2E" stroke-width="3" stroke-linecap="round"/>
  </g>
</svg>
